# xmcd
#
# Track frame offsets: 
#        150
#        11130
#        25142
#        39002
#        56260
#        68435
#        79562
#        94898
#        105608
#        120383
#        133280
#        151277
#        161732
#        172978
#        182518
#        192925
#        211073
#        225395
#        237485
#        248470
#
# Disc length: 3466 seconds
#
# Revision: 3
# Processed by: cddbd v1.5.2PL0 Copyright (c) Steve Scherf et al.
# Submitted via: ExactAudioCopy v1.3
#
DISCID=ec0d8814
DTITLE=Willie Nelson - One for the Road
DYEAR=2013
DGENRE=Outlaw Country
TTITLE0=Willie and Leon - Detour
TTITLE1=Willie and Leon - I Saw The Light
TTITLE2=Willie and Leon - Heartbreak Hotel
TTITLE3=Willie and Leon - Let The Rest Of The World Go By
TTITLE4=Willie and Leon - Trouble In Mind
TTITLE5=Willie and Leon - Don't Fence Me In
TTITLE6=Willie and Leon - The Wild Side Of Life
TTITLE7=Willie and Leon - Ridin' Down The Canyon
TTITLE8=Willie and Leon - Sioux City Sue
TTITLE9=Willie and Leon - You Are My Sunshine
TTITLE10=Willie and Leon - Danny Boy
TTITLE11=Willie and Leon - Always
TTITLE12=Willie and Leon - Summertime
TTITLE13=Willie and Leon - Because Of You
TTITLE14=Willie and Leon - Am I Blue
TTITLE15=Willie and Leon - Tenderly
TTITLE16=Willie and Leon - Far Away Places
TTITLE17=Willie and Leon - That Lucky Old Sun (Just Rolls Around Heaven 
TTITLE17=All Day)
TTITLE18=Willie and Leon - Stormy Weather
TTITLE19=Willie and Leon - One For My Baby (And One More For The Road)
EXTD=
EXTT0=
EXTT1=
EXTT2=
EXTT3=
EXTT4=
EXTT5=
EXTT6=
EXTT7=
EXTT8=
EXTT9=
EXTT10=
EXTT11=
EXTT12=
EXTT13=
EXTT14=
EXTT15=
EXTT16=
EXTT17=
EXTT18=
EXTT19=
PLAYORDER=
